# xmcd
#
# Track frame offsets: 
#        150
#        17833
#        29954
#        44965
#        58865
#        73851
#        86010
#        98267
#        112584
#        126235
#        143304
#        158255
#        176446
#        201287
#        217055
#
# Disc length: 3115 seconds
#
# Revision: 3
# Processed by: cddbd v1.5.2PL0 Copyright (c) Steve Scherf et al.
# Submitted via: ExactAudioCopyFreeDBPlugin 1.0
#
DISCID=d10c290f
DTITLE=Various Artist - Schlager-Giganten: Das Ist Kult! Vol. 2
DYEAR=2005
DGENRE=Schlager
TTITLE0=Vicky Leandros - Theo, wir fahr'n nach Lodz
TTITLE1=Tony Holiday - Tanze Samba mit mir
TTITLE2=Daliah Lavi - Oh, wann kommst du?
TTITLE3=Karel Gott - Einmal um die ganze Welt
TTITLE4=Wencke Myhre - Er hat ein knallrotes Gummiboot
TTITLE5=Chris Roberts - Mein Name ist Hase
TTITLE6=Ann and Andy - Zigeunerwagen
TTITLE7=Bata Illic - Michaela
TTITLE8=Mary Roos - Santo Domingo
TTITLE9=Peter Rubin - Wir zwei fahren irgendwo hin
TTITLE10=Margot Werner - So ein Mann
TTITLE11=Roy Black - Sand in deinen Augen
TTITLE12=Marianne Rosenberg - Andreas (Für einen Sommer hielten wir di
TTITLE12=e Sonne an)
TTITLE13=Volkmar Döring - Sabine
TTITLE14=Linda Bergen - In Virginia fällt der Regen
EXTD=Deutsche Schlager Oldies
EXTT0=
EXTT1=
EXTT2=
EXTT3=
EXTT4=
EXTT5=
EXTT6=
EXTT7=
EXTT8=
EXTT9=
EXTT10=
EXTT11=
EXTT12=
EXTT13=
EXTT14=
PLAYORDER=
